<svg id="SVGRoot" width="40px" height="40px" version="1.1" viewBox="0 0 40 40" xmlns="http://www.w3.org/2000/svg" xmlns:xlink="http://www.w3.org/1999/xlink">
 <defs>
  <linearGradient id="linearGradient1105" x1="8.3594" x2="25.172" y1="23.734" y2="23.734" gradientUnits="userSpaceOnUse">
   <stop offset="0"/>
  </linearGradient>
 </defs>
 <g transform="matrix(2.2075 0 0 2.2117 -17.129 -33.414)">
  <g transform="translate(.013732 .67169)" fill-opacity="0" stroke-linecap="round" stroke-miterlimit="3.3" stroke-width=".6274">
   <path d="m8.3193 21.988c0.18733-1.2698 1.2744-2.4148 2.3301-3.145 1.5794-1.0924 3.6047-1.5989 5.5225-1.6998 1.9804-0.10422 4.1235 0.31697 5.9551 1.0774 0.78512 0.32596 1.6239 0.98227 2.1626 1.6399 0.53758 0.65622 0.90948 1.6491 1.0024 2.4923 0.09806 0.88948-0.18897 1.9785-0.68262 2.7249-0.37943 0.57369-1.2529 0.65435-1.6875 1.1875-0.33011 0.40501-0.52636 0.9244-0.625 1.4375-0.12984 0.67545 0.2824 1.6371-0.28125 2.0312-0.64357 0.45008-1.0559-0.71444-1.6846-1.1851-0.59385-0.44462-0.70253-1.0808-1.3669-1.4108-1.0823-0.53764-2.5434-0.1448-3.7356-0.34287-1.3389-0.22244-2.7095-0.37705-3.9316-0.96741-0.81164-0.39209-1.6995-0.78623-2.25-1.5-0.43052-0.55823-0.83042-1.6423-0.72754-2.3397z" stroke="url(#linearGradient1105)"/>
   <g stroke="#000">
    <path d="m19.044 27.168s-0.78352-1.5554-1.3562-2.2307c-0.50936-0.60065-1.875-1.4375-1.875-1.4375"/>
    <path d="m16.333 17.248s0.04486 1.4236 0.40625 2c0.43828 0.69898 1.9688 1.5 1.9688 1.5"/>
    <path d="m12.22 23.219s0.45689-0.98661 0.70487-1.308c0.24798-0.32143 0.81829-0.63393 1.1076-0.72321 0.70129-0.21638 1.7188 0.03125 1.7188 0.03125"/>
    <path d="m18.781 23.01s1.2005 0.28404 1.898 0.32746c0.56228 0.03501 1.5989-0.25646 2.0248-0.62526 0.37332-0.32335 0.63621-1.6963 0.63621-1.6963"/>
   </g>
  </g>
 </g>
</svg>
